<?xml version="1.0" encoding="utf-8"?>
<!-- Generator: Adobe Illustrator 18.0.0, SVG Export Plug-In . SVG Version: 6.00 Build 0)  -->
<!DOCTYPE svg PUBLIC "-//W3C//DTD SVG 1.1//EN" "http://www.w3.org/Graphics/SVG/1.1/DTD/svg11.dtd">
<svg version="1.1" id="Layer_1" xmlns="http://www.w3.org/2000/svg" xmlns:xlink="http://www.w3.org/1999/xlink" x="0px" y="0px"
	 viewBox="-25 150.4 866.9 213.7" enable-background="new -25 150.4 866.9 213.7" xml:space="preserve">
<g>
	<path fill="#FFFFFF" d="M288.3,249.3c-2.4-3.7-5.5-6.8-9.2-8.5c-3.7-2-8.2-3.1-13-3.1c-5.8,0-10.9,1-15.3,3.1l-1.7,14.7
		c2.4-0.7,5.1-1,7.8-1c2.7,0,5.1,0.7,7.5,1.7c2,1,3.7,2.7,5.1,4.8c1.4,2.4,2,5.1,2.4,8.9c0.3,3.7,0.3,7.8-0.3,13.3
		c-0.7,5.1-1.7,9.5-3.1,13.3s-3.1,6.8-5.5,9.2c-2,2.4-4.4,4.4-7.2,5.5c-2.7,1-5.8,1.7-8.9,1.7c-5.8,0-11.2-0.7-17-1.7l5.8-46l0,0
		l1.7-15l0,0l5.8-50.4h-21.1l-11.9,96.8l-3.4,27.6c15.7,3.1,30,4.8,42.6,4.8c5.8,0,11.2-1,16-3.4c5.1-2.4,9.2-5.5,13.3-9.5
		c3.7-4.1,6.8-8.9,9.5-14.7c2.4-5.8,4.1-11.6,4.8-18.4c1-7.2,1-13.6,0-19.1C292.4,257.8,290.7,253,288.3,249.3z"/>
	<path fill="#FFFFFF" d="M355.8,238.7c-4.8,0-9.2,2-13.3,5.8c-4.4,3.7-8.2,9.2-11.9,16c0.3-3.7,0.3-6.8,0.3-8.9c0-2,0-3.7,0.3-4.8
		c0-1,0-1.7,0-2c0-2-0.7-3.4-2-4.4s-3.1-1.4-5.1-1.4h-10.9l-10.9,88.6h20.8l4.8-38.9c2.4-10.6,5.8-18.1,9.5-22.8
		c3.7-4.8,8.2-7.2,13.3-7.2c2.7,0,5.5,0.7,8.2,1.7l3.7-20.5C360.2,239,357.9,238.7,355.8,238.7z"/>
	<path fill="#FFFFFF" d="M418.2,238c-5.5,0-10.9,0.7-15.7,2c-5.1,1.4-9.5,3.4-14,6.1c-4.4,2.7-8.2,5.8-11.6,9.5
		c-3.4,3.7-6.5,7.8-8.9,12.3s-4.4,9.2-5.8,14c-1.4,5.1-2,10.2-2,15.3c0,5.5,0.7,9.9,1.7,14c1.4,4.1,3.1,7.2,5.1,9.9
		c2,2.7,4.8,4.4,7.5,5.8c3.1,1.4,6.1,2,9.2,2c5.8,0,11.2-1.7,16-5.5c4.8-3.4,9.2-8.2,13.3-14.3l-0.7,11.9c0,1.7,0.7,3.4,1.7,4.4
		c1,1,2.7,1.7,5.5,1.7h11.2l11.2-85.6c-3.7-1.4-7.8-2.4-11.9-3.1C426.4,238,422.3,238,418.2,238z M416.5,279.9
		c-1.4,4.4-2.7,8.5-4.4,12.3s-3.7,7.2-5.5,9.9c-2,2.7-4.1,5.1-6.5,6.8s-4.4,2.4-6.8,2.4c-3.4,0-6.1-1.4-8.2-4.4
		c-2-2.7-3.1-7.5-3.1-13.6c0-5.5,0.7-10.6,2.4-15.7c1.7-4.8,4.1-9.2,7.2-13c3.1-3.7,6.5-6.8,10.6-8.9c4.1-2,8.5-3.4,13.3-3.4
		c1.4,0,2.7,0,4.4,0.3L416.5,279.9z"/>
	<path fill="#FFFFFF" d="M523.5,244.8c-2-2.4-4.1-4.1-6.8-5.1c-2.7-1-5.8-1.7-8.9-1.7c-5.8,0-11.6,1.7-17,4.8
		c-5.5,3.4-10.6,8.2-15,14.7l0.7-11.6c0-2.4-0.7-4.1-1.7-5.1c-1.4-1-3.1-1.7-5.1-1.7h-10.9l-10.6,88.6h21.1l4.8-43.3
		c1.4-4.4,2.7-8.2,4.8-11.9c2-3.4,4.1-6.5,6.1-9.2c2.4-2.4,4.8-4.4,7.2-5.8s5.1-2,7.2-2c3.1,0,5.1,0.7,6.5,2.4s2,4.4,2,8.2
		c0,0.3,0,0.7,0,1c0,0.3,0,1.4-0.3,2.7c0,1.4-0.3,3.4-0.7,5.8c-0.3,2.7-0.7,6.1-1.4,10.6s-1,10.2-2,16.7c-0.7,6.8-1.7,15-3.1,24.5
		h21.1l6.5-56.2c0-1.4,0.3-2.4,0.3-3.4c0-1,0-2.4,0-3.4c0-4.4-0.7-8.2-1.7-11.2C526.9,249.6,525.2,246.9,523.5,244.8z"/>
	<path fill="#FFFFFF" d="M610.8,199.5l-5.8,46.7c-2.4-2.7-5.5-4.8-8.5-6.5c-3.4-1.4-7.5-2.4-12.3-2.4c-5.8,0-11.2,1-16,3.4
		c-5.1,2.4-9.2,5.5-13.3,9.5c-3.7,4.1-6.8,8.9-9.5,14.7c-2.4,5.8-4.1,11.6-4.8,18.4c-1,7.2-1,13.6,0,19.4c1,5.5,2.4,10.2,5.1,14
		c2.4,3.7,5.5,6.8,9.2,8.9c3.7,2,8.2,3.1,13,3.1c6.1,0,11.9-1.4,16.7-3.7s9.5-5.8,13.6-9.9l-0.7,8.2c0,1.4,0.7,2.4,1.7,3.1
		c1,0.7,2,1,3.4,1h14.3l15-127.8H610.8z M598.2,301.4c-3.1,3.4-6.5,6.1-9.9,7.8c-3.4,1.7-7.2,2.7-11.6,2.7c-2.7,0-5.1-0.7-7.5-1.7
		c-2-1-3.7-2.7-5.1-4.8c-1.4-2.4-2-5.1-2.4-8.9c-0.3-3.7-0.3-7.8,0.3-13.3c0.7-5.1,1.7-9.5,3.1-13.3s3.1-6.8,5.5-9.2
		c2-2.4,4.4-4.4,7.2-5.5c2.7-1,5.8-1.7,8.9-1.7c3.4,0,6.1,0.7,8.9,1.7c2.7,1,5.1,3.4,7.2,6.1L598.2,301.4z"/>
	<path fill="#FFFFFF" d="M686.1,240.7c-4.4-2-9.2-2.7-15-2.7c-5.5,0-10.2,1-14.7,2.7c-4.1,1.7-7.8,4.1-10.6,6.8
		c-3.1,2.7-5.1,6.1-6.5,9.9c-1.4,3.7-2.4,7.5-2.4,11.6c0,3.4,0.3,6.1,1.4,8.2c1,2.4,2.4,4.1,3.7,5.8c1.7,1.7,3.4,2.7,5.5,3.7
		c2,1,4.1,2,6.1,2.7c2,0.7,4.4,1.7,6.5,2.4c2,0.7,4.1,1.7,5.5,2.4c1.7,1,3.1,2,3.7,3.4c1,1.4,1.4,3.1,1.4,4.8c0,1.7-0.3,3.1-1,4.4
		c-0.7,1.4-1.7,2.7-2.7,3.7c-1.4,1-2.7,2-4.4,2.7s-3.7,1-6.1,1c-3.1,0-5.5-0.3-7.2-1c-1.7-0.7-3.4-1.7-4.8-2.4
		c-1.4-1-2.4-1.7-3.4-2.4s-2-1-3.4-1s-2.4,0.3-3.1,0.7c-0.7,0.3-1.7,1.4-2.4,2.4l-5.1,8.2c1.4,1.7,3.1,3.1,4.8,4.4
		c1.7,1.4,4.1,2.4,6.1,3.4c2.4,1,4.8,1.7,7.5,2.4s5.5,0.7,8.2,0.7c5.5,0,10.6-0.7,15-2.4c4.4-1.7,8.2-4.1,11.6-6.8
		c3.1-3.1,5.5-6.1,7.2-10.2c1.7-3.7,2.4-7.8,2.4-12.3c0-3.1-0.3-5.8-1.4-8.2c-1-2.4-2.4-4.1-4.1-5.8s-3.4-3.1-5.5-4.1
		c-2-1-4.1-2-6.5-3.1c-2-1-4.4-1.7-6.5-2.4c-2-0.7-3.7-1.7-5.5-2.4c-1.7-1-3.1-2-4.1-3.1c-1-1-1.4-2.7-1.4-4.4
		c0-3.1,1.4-5.5,3.7-7.5c2.4-2,5.8-3.1,10.6-3.1c2.4,0,4.4,0.3,6.5,1c1.7,0.7,3.4,1.4,4.8,2c1.4,0.7,2.4,1.4,3.4,2c1,0.7,2,1,3.1,1
		s1.7-0.3,2.4-0.7c0.7-0.3,1-1,1.7-2l5.5-7.8C694,245.2,690.5,242.5,686.1,240.7z"/>
	<path fill="#FFFFFF" d="M729.7,244.5l1.4-10.6c0.7-4.4,1.4-7.8,2.7-10.9s2.7-5.5,4.8-7.2c1.7-1.7,3.7-3.1,6.1-4.1
		c2.4-1,4.8-1.4,7.5-1.4c1.4,0,2.7,0,4.1,0.3c0.7,0,1.4,0.3,1.7,0.3l0.7-5.8c-0.7-0.3-1.4-0.3-2-0.3c-1.7-0.3-3.1-0.3-4.8-0.3
		c-3.7,0-7.2,0.7-10.2,1.7c-3.1,1.4-6.1,3.1-8.5,5.5c-2.4,2.4-4.4,5.5-6.1,9.2c-1.7,3.7-2.7,7.8-3.4,13l-1.4,10.9H712l-1,7.2h10.2
		l-11.9,97.5h4.4c1,0,2-0.3,2.7-0.7c0.7-0.7,1-1.7,1.4-2.7l11.2-93.7h23.9l1-7.2h-24.2V244.5z"/>
	<polygon fill="#FFFFFF" points="762.1,327.7 770.3,327.7 780.5,241.8 772.7,241.8 	"/>
	<path fill="#FFFFFF" d="M786.3,215.2c0.3-1,0.7-1.7,0.7-2.7c0-1-0.3-2-0.7-3.1s-1-1.7-1.7-2.4s-1.4-1.4-2.4-1.7s-1.7-0.7-2.7-0.7
		s-2,0.3-2.7,0.7c-1,0.3-1.7,1-2.4,1.7s-1,1.7-1.7,2.4c-0.3,1-0.7,2-0.7,3.1c0,1,0.3,2,0.7,2.7c0.3,1,1,1.7,1.7,2.4s1.4,1.4,2.4,1.7
		s1.7,0.7,2.7,0.7s1.7-0.3,2.7-0.7s1.7-1,2.4-1.7S786,216.2,786.3,215.2z"/>
	<path fill="#FFFFFF" d="M818.4,244.5l4.1-32.7H817c-0.7,0-1,0.3-1.4,0.7c-0.3,0.3-0.7,1-0.7,1.4l-4.1,30.7h-11.2l-1,7.2h11.2
		l-5.8,47.7c-0.3,2.4-0.7,4.8-0.7,6.1c-0.3,1.7-0.3,3.1-0.3,4.1s0,1.7-0.3,2.4c0,0.7,0,1,0,1.4c0,5.5,1.4,9.2,4.1,11.9
		c2.7,2.7,6.5,3.7,10.9,3.7c3.4,0,6.5-0.7,9.9-2c3.4-1.4,6.1-3.4,8.5-5.8l-1.7-3.7c-0.3-0.3-0.3-0.3-0.7-0.7c-0.3,0-0.3-0.3-0.7-0.3
		c-0.3,0-1,0.3-1.7,1s-1.7,1.4-2.7,2c-1,0.7-2.4,1.4-3.7,2c-1.4,0.7-3.1,1-5.1,1c-2.7,0-5.1-0.7-6.8-2.4c-1.7-1.7-2.7-4.4-2.7-8.2
		c0-0.3,0-0.7,0-1c0-0.3,0-1,0.3-2c0-1,0.3-2,0.3-3.7c0.3-1.4,0.3-3.4,0.7-5.8l5.8-47.4h23.5l1-7.2h-23.5V244.5z"/>
</g>
<g>
	<g>
		<path fill="#FFFFFF" d="M95.2,150.4l-99.4,41.5L-18,298.7l85.7,65.4l99.4-41.5l13.8-106.9L95.2,150.4z M67.9,303.2
			c-4.7,2.6-11,3.9-18.2,3.9c-6.3,0-13.3-1-20.5-3l-5.7-1.6h0L38.7,184h14L38.8,292c10.9,2.2,18.7,0.9,22.3-1.1
			c6-3.3,11.2-19.3,8.3-31.2c-2-8.2-6.6-8.3-8.3-8.3l-9.5-0.4l1.6-13.6l8.1,0.1c10.8,0.2,18.6,7,21.6,18.9
			C86.9,272.1,81.1,295.9,67.9,303.2z M140.1,225.4l-4.2-0.5c-4.6-0.6-8,0.1-10.3,2.1c-3,2.5-4.3,6.9-4.8,10.6h17.9l-1.7,13.9h-17.9
			l-10.2,78.9h-14l10.2-78.9H94.6l1.7-13.9h10.4c0.7-6,2.7-15.3,10-21.3c5.4-4.4,12.4-6.2,20.8-5.1l4.2,0.5L140.1,225.4z"/>
		<polygon fill="#FFFFFF" points="180.9,215.7 180.9,215.7 180.9,215.7 		"/>
	</g>
</g>
</svg>
